<mxfile host="Electron" agent="Mozilla/5.0 (Windows NT 10.0; Win64; x64) AppleWebKit/537.36 (KHTML, like Gecko) draw.io/28.0.6 Chrome/138.0.7204.100 Electron/37.2.3 Safari/537.36" version="28.0.6">
  <diagram name="Page-1" id="pa_WugdnDBFKT49zCEz6">
    <mxGraphModel dx="2916" dy="2301" grid="1" gridSize="10" guides="1" tooltips="1" connect="1" arrows="1" fold="1" page="1" pageScale="1" pageWidth="850" pageHeight="1100" math="0" shadow="0">
      <root>
        <mxCell id="0" />
        <mxCell id="1" parent="0" />
        <mxCell id="Movv5W4oJ3RASIbwRSbD-14" value="Buzzer" style="swimlane;fontStyle=1;align=center;verticalAlign=top;childLayout=stackLayout;horizontal=1;startSize=26;horizontalStack=0;resizeParent=1;resizeParentMax=0;resizeLast=0;collapsible=1;marginBottom=0;whiteSpace=wrap;html=1;" vertex="1" parent="1">
          <mxGeometry x="720" y="280" width="160" height="80" as="geometry" />
        </mxCell>
        <mxCell id="Movv5W4oJ3RASIbwRSbD-16" value="" style="line;strokeWidth=1;fillColor=none;align=left;verticalAlign=middle;spacingTop=-1;spacingLeft=3;spacingRight=3;rotatable=0;labelPosition=right;points=[];portConstraint=eastwest;strokeColor=inherit;" vertex="1" parent="Movv5W4oJ3RASIbwRSbD-14">
          <mxGeometry y="26" width="160" height="8" as="geometry" />
        </mxCell>
        <mxCell id="Movv5W4oJ3RASIbwRSbD-17" value="+ StartBuzzing() : void&lt;div&gt;+ StopBuzzing() : void&lt;/div&gt;" style="text;strokeColor=none;fillColor=none;align=left;verticalAlign=top;spacingLeft=4;spacingRight=4;overflow=hidden;rotatable=0;points=[[0,0.5],[1,0.5]];portConstraint=eastwest;whiteSpace=wrap;html=1;" vertex="1" parent="Movv5W4oJ3RASIbwRSbD-14">
          <mxGeometry y="34" width="160" height="46" as="geometry" />
        </mxCell>
        <mxCell id="Movv5W4oJ3RASIbwRSbD-26" value="Producer" style="shape=note;whiteSpace=wrap;html=1;backgroundOutline=1;darkOpacity=0.05;" vertex="1" parent="1">
          <mxGeometry x="-210" y="310" width="130" height="70" as="geometry" />
        </mxCell>
        <mxCell id="Movv5W4oJ3RASIbwRSbD-27" value="" style="endArrow=none;dashed=1;html=1;dashPattern=1 3;strokeWidth=2;rounded=0;exitX=0;exitY=0;exitDx=130;exitDy=50;exitPerimeter=0;entryX=-0.025;entryY=0.038;entryDx=0;entryDy=0;entryPerimeter=0;" edge="1" parent="1" source="Movv5W4oJ3RASIbwRSbD-26">
          <mxGeometry width="50" height="50" relative="1" as="geometry">
            <mxPoint x="400" y="560" as="sourcePoint" />
            <mxPoint x="36" y="314.98799999999983" as="targetPoint" />
          </mxGeometry>
        </mxCell>
        <mxCell id="Movv5W4oJ3RASIbwRSbD-28" value="Consumer" style="shape=note;whiteSpace=wrap;html=1;backgroundOutline=1;darkOpacity=0.05;" vertex="1" parent="1">
          <mxGeometry x="340" y="150" width="130" height="70" as="geometry" />
        </mxCell>
        <mxCell id="Movv5W4oJ3RASIbwRSbD-29" value="" style="endArrow=none;dashed=1;html=1;dashPattern=1 3;strokeWidth=2;rounded=0;entryX=0.5;entryY=1;entryDx=0;entryDy=0;entryPerimeter=0;" edge="1" parent="1" target="Movv5W4oJ3RASIbwRSbD-28">
          <mxGeometry width="50" height="50" relative="1" as="geometry">
            <mxPoint x="490" y="240" as="sourcePoint" />
            <mxPoint x="450" y="510" as="targetPoint" />
          </mxGeometry>
        </mxCell>
        <mxCell id="Movv5W4oJ3RASIbwRSbD-30" value="PresenseData" style="swimlane;fontStyle=1;align=center;verticalAlign=top;childLayout=stackLayout;horizontal=1;startSize=26;horizontalStack=0;resizeParent=1;resizeParentMax=0;resizeLast=0;collapsible=1;marginBottom=0;whiteSpace=wrap;html=1;" vertex="1" parent="1">
          <mxGeometry x="230" y="440" width="160" height="110" as="geometry" />
        </mxCell>
        <mxCell id="Movv5W4oJ3RASIbwRSbD-31" value="- patientPresent : bool" style="text;strokeColor=none;fillColor=none;align=left;verticalAlign=top;spacingLeft=4;spacingRight=4;overflow=hidden;rotatable=0;points=[[0,0.5],[1,0.5]];portConstraint=eastwest;whiteSpace=wrap;html=1;" vertex="1" parent="Movv5W4oJ3RASIbwRSbD-30">
          <mxGeometry y="26" width="160" height="26" as="geometry" />
        </mxCell>
        <mxCell id="Movv5W4oJ3RASIbwRSbD-32" value="" style="line;strokeWidth=1;fillColor=none;align=left;verticalAlign=middle;spacingTop=-1;spacingLeft=3;spacingRight=3;rotatable=0;labelPosition=right;points=[];portConstraint=eastwest;strokeColor=inherit;" vertex="1" parent="Movv5W4oJ3RASIbwRSbD-30">
          <mxGeometry y="52" width="160" height="8" as="geometry" />
        </mxCell>
        <mxCell id="Movv5W4oJ3RASIbwRSbD-33" value="+ SetPresense(bool) : void&lt;div&gt;+ GetPresense() : bool&lt;/div&gt;" style="text;strokeColor=none;fillColor=none;align=left;verticalAlign=top;spacingLeft=4;spacingRight=4;overflow=hidden;rotatable=0;points=[[0,0.5],[1,0.5]];portConstraint=eastwest;whiteSpace=wrap;html=1;" vertex="1" parent="Movv5W4oJ3RASIbwRSbD-30">
          <mxGeometry y="60" width="160" height="50" as="geometry" />
        </mxCell>
        <mxCell id="Movv5W4oJ3RASIbwRSbD-34" value="BlockingCollection&amp;lt;PresenseData&amp;gt;" style="swimlane;fontStyle=1;align=center;verticalAlign=top;childLayout=stackLayout;horizontal=1;startSize=26;horizontalStack=0;resizeParent=1;resizeParentMax=0;resizeLast=0;collapsible=1;marginBottom=0;whiteSpace=wrap;html=1;" vertex="1" parent="1">
          <mxGeometry x="185" y="600" width="250" height="80" as="geometry" />
        </mxCell>
        <mxCell id="Movv5W4oJ3RASIbwRSbD-36" value="" style="line;strokeWidth=1;fillColor=none;align=left;verticalAlign=middle;spacingTop=-1;spacingLeft=3;spacingRight=3;rotatable=0;labelPosition=right;points=[];portConstraint=eastwest;strokeColor=inherit;" vertex="1" parent="Movv5W4oJ3RASIbwRSbD-34">
          <mxGeometry y="26" width="250" height="8" as="geometry" />
        </mxCell>
        <mxCell id="Movv5W4oJ3RASIbwRSbD-37" value="+ Add(PresenseData)&lt;div&gt;&lt;div&gt;+ Take() : PresenseData&lt;/div&gt;&lt;/div&gt;" style="text;strokeColor=none;fillColor=none;align=left;verticalAlign=top;spacingLeft=4;spacingRight=4;overflow=hidden;rotatable=0;points=[[0,0.5],[1,0.5]];portConstraint=eastwest;whiteSpace=wrap;html=1;" vertex="1" parent="Movv5W4oJ3RASIbwRSbD-34">
          <mxGeometry y="34" width="250" height="46" as="geometry" />
        </mxCell>
        <mxCell id="Movv5W4oJ3RASIbwRSbD-38" value="" style="endArrow=open;endFill=1;endSize=12;html=1;rounded=0;entryX=0.5;entryY=1;entryDx=0;entryDy=0;exitX=0.548;exitY=0.075;exitDx=0;exitDy=0;exitPerimeter=0;" edge="1" parent="1" source="Movv5W4oJ3RASIbwRSbD-57" target="Movv5W4oJ3RASIbwRSbD-45">
          <mxGeometry width="160" relative="1" as="geometry">
            <mxPoint x="140" y="240" as="sourcePoint" />
            <mxPoint x="97.59999999999991" y="153.99800000000005" as="targetPoint" />
          </mxGeometry>
        </mxCell>
        <mxCell id="Movv5W4oJ3RASIbwRSbD-39" value="" style="endArrow=open;endFill=1;endSize=12;html=1;rounded=0;exitX=0.5;exitY=1;exitDx=0;exitDy=0;entryX=0;entryY=0.5;entryDx=0;entryDy=0;" edge="1" parent="1" source="Movv5W4oJ3RASIbwRSbD-58" target="Movv5W4oJ3RASIbwRSbD-37">
          <mxGeometry width="160" relative="1" as="geometry">
            <mxPoint x="119.03999999999996" y="340" as="sourcePoint" />
            <mxPoint x="120" y="250" as="targetPoint" />
            <Array as="points">
              <mxPoint x="110" y="660" />
            </Array>
          </mxGeometry>
        </mxCell>
        <mxCell id="Movv5W4oJ3RASIbwRSbD-40" value="" style="endArrow=open;endFill=1;endSize=12;html=1;rounded=0;entryX=1.004;entryY=0.348;entryDx=0;entryDy=0;entryPerimeter=0;" edge="1" parent="1" target="Movv5W4oJ3RASIbwRSbD-37">
          <mxGeometry width="160" relative="1" as="geometry">
            <mxPoint x="521" y="342" as="sourcePoint" />
            <mxPoint x="586" y="680" as="targetPoint" />
            <Array as="points">
              <mxPoint x="521" y="650" />
            </Array>
          </mxGeometry>
        </mxCell>
        <mxCell id="Movv5W4oJ3RASIbwRSbD-41" value="" style="endArrow=open;endFill=1;endSize=12;html=1;rounded=0;entryX=0.013;entryY=0.109;entryDx=0;entryDy=0;entryPerimeter=0;" edge="1" parent="1" target="Movv5W4oJ3RASIbwRSbD-17">
          <mxGeometry width="160" relative="1" as="geometry">
            <mxPoint x="600" y="290" as="sourcePoint" />
            <mxPoint x="720" y="741" as="targetPoint" />
            <Array as="points" />
          </mxGeometry>
        </mxCell>
        <mxCell id="Movv5W4oJ3RASIbwRSbD-42" value="Creates" style="endArrow=open;endSize=12;dashed=1;html=1;rounded=0;exitX=0.75;exitY=1;exitDx=0;exitDy=0;entryX=-0.006;entryY=0.06;entryDx=0;entryDy=0;entryPerimeter=0;" edge="1" parent="1" source="Movv5W4oJ3RASIbwRSbD-58" target="Movv5W4oJ3RASIbwRSbD-33">
          <mxGeometry width="160" relative="1" as="geometry">
            <mxPoint x="160" y="342.9899999999998" as="sourcePoint" />
            <mxPoint x="510" y="540" as="targetPoint" />
            <Array as="points">
              <mxPoint x="168" y="503" />
            </Array>
          </mxGeometry>
        </mxCell>
        <mxCell id="Movv5W4oJ3RASIbwRSbD-43" value="Consumes" style="endArrow=open;endSize=12;dashed=1;html=1;rounded=0;entryX=1;entryY=0.22;entryDx=0;entryDy=0;entryPerimeter=0;" edge="1" parent="1" target="Movv5W4oJ3RASIbwRSbD-33">
          <mxGeometry width="160" relative="1" as="geometry">
            <mxPoint x="482" y="343" as="sourcePoint" />
            <mxPoint x="669" y="562" as="targetPoint" />
            <Array as="points">
              <mxPoint x="482" y="510" />
            </Array>
          </mxGeometry>
        </mxCell>
        <mxCell id="Movv5W4oJ3RASIbwRSbD-47" value="" style="group" vertex="1" connectable="0" parent="1">
          <mxGeometry x="50" y="110" width="150" height="100" as="geometry" />
        </mxCell>
        <mxCell id="Movv5W4oJ3RASIbwRSbD-44" value="&lt;div&gt;&lt;b&gt;&amp;lt;&amp;lt;interface&amp;gt;&amp;gt;&lt;/b&gt;&lt;/div&gt;&lt;b&gt;IPresenseSensor&lt;/b&gt;" style="rounded=0;whiteSpace=wrap;html=1;" vertex="1" parent="Movv5W4oJ3RASIbwRSbD-47">
          <mxGeometry width="150" height="40" as="geometry" />
        </mxCell>
        <mxCell id="Movv5W4oJ3RASIbwRSbD-45" value="+ IsPatientInBed() : bool" style="rounded=0;whiteSpace=wrap;html=1;" vertex="1" parent="Movv5W4oJ3RASIbwRSbD-47">
          <mxGeometry y="40" width="150" height="60" as="geometry" />
        </mxCell>
        <mxCell id="Movv5W4oJ3RASIbwRSbD-48" value="PresenseSensor" style="rounded=0;whiteSpace=wrap;html=1;" vertex="1" parent="1">
          <mxGeometry x="45" y="-20" width="160" height="60" as="geometry" />
        </mxCell>
        <mxCell id="Movv5W4oJ3RASIbwRSbD-49" value="" style="endArrow=block;dashed=1;endFill=0;endSize=12;html=1;rounded=0;exitX=0.5;exitY=1;exitDx=0;exitDy=0;entryX=0.5;entryY=0;entryDx=0;entryDy=0;" edge="1" parent="1" source="Movv5W4oJ3RASIbwRSbD-48" target="Movv5W4oJ3RASIbwRSbD-44">
          <mxGeometry width="160" relative="1" as="geometry">
            <mxPoint x="140" y="70" as="sourcePoint" />
            <mxPoint x="300" y="70" as="targetPoint" />
          </mxGeometry>
        </mxCell>
        <mxCell id="Movv5W4oJ3RASIbwRSbD-50" value="" style="group" vertex="1" connectable="0" parent="1">
          <mxGeometry x="714" y="440" width="210" height="100" as="geometry" />
        </mxCell>
        <mxCell id="Movv5W4oJ3RASIbwRSbD-51" value="&lt;div&gt;&lt;b&gt;&amp;lt;&amp;lt;interface&amp;gt;&amp;gt;&lt;/b&gt;&lt;/div&gt;&lt;b&gt;IPresenseFilter&lt;/b&gt;" style="rounded=0;whiteSpace=wrap;html=1;" vertex="1" parent="Movv5W4oJ3RASIbwRSbD-50">
          <mxGeometry width="210" height="40" as="geometry" />
        </mxCell>
        <mxCell id="Movv5W4oJ3RASIbwRSbD-52" value="+ AddPresenseSample(bool) : bool" style="rounded=0;whiteSpace=wrap;html=1;" vertex="1" parent="Movv5W4oJ3RASIbwRSbD-50">
          <mxGeometry y="40" width="210" height="60" as="geometry" />
        </mxCell>
        <mxCell id="Movv5W4oJ3RASIbwRSbD-53" value="PresenseFilter" style="rounded=0;whiteSpace=wrap;html=1;" vertex="1" parent="1">
          <mxGeometry x="739" y="610" width="160" height="60" as="geometry" />
        </mxCell>
        <mxCell id="Movv5W4oJ3RASIbwRSbD-54" value="" style="endArrow=block;dashed=1;endFill=0;endSize=12;html=1;rounded=0;exitX=0.5;exitY=0;exitDx=0;exitDy=0;entryX=0.5;entryY=1;entryDx=0;entryDy=0;" edge="1" parent="1" source="Movv5W4oJ3RASIbwRSbD-53" target="Movv5W4oJ3RASIbwRSbD-52">
          <mxGeometry width="160" relative="1" as="geometry">
            <mxPoint x="680" y="660" as="sourcePoint" />
            <mxPoint x="680" y="730" as="targetPoint" />
          </mxGeometry>
        </mxCell>
        <mxCell id="Movv5W4oJ3RASIbwRSbD-55" value="" style="endArrow=open;endFill=1;endSize=12;html=1;rounded=0;exitX=0.994;exitY=0.269;exitDx=0;exitDy=0;entryX=0.5;entryY=0;entryDx=0;entryDy=0;exitPerimeter=0;" edge="1" parent="1" target="Movv5W4oJ3RASIbwRSbD-51">
          <mxGeometry width="160" relative="1" as="geometry">
            <mxPoint x="599.04" y="320.99400000000014" as="sourcePoint" />
            <mxPoint x="772" y="310" as="targetPoint" />
            <Array as="points">
              <mxPoint x="650" y="347" />
              <mxPoint x="650" y="400" />
              <mxPoint x="820" y="400" />
            </Array>
          </mxGeometry>
        </mxCell>
        <mxCell id="Movv5W4oJ3RASIbwRSbD-56" value="&#xa;&#xa;" style="group;align=left;" vertex="1" connectable="0" parent="1">
          <mxGeometry x="10" y="260" width="210" height="100" as="geometry" />
        </mxCell>
        <mxCell id="Movv5W4oJ3RASIbwRSbD-57" value="&lt;div&gt;&lt;b&gt;&amp;lt;&amp;lt;thread&amp;gt;&amp;gt;&lt;/b&gt;&lt;/div&gt;&lt;b&gt;PresenseDataProvider&lt;/b&gt;" style="rounded=0;whiteSpace=wrap;html=1;" vertex="1" parent="Movv5W4oJ3RASIbwRSbD-56">
          <mxGeometry width="210" height="40" as="geometry" />
        </mxCell>
        <mxCell id="Movv5W4oJ3RASIbwRSbD-58" value="+ StopThread() : void&lt;div&gt;+ Run() : void&lt;/div&gt;" style="rounded=0;whiteSpace=wrap;html=1;align=left;" vertex="1" parent="Movv5W4oJ3RASIbwRSbD-56">
          <mxGeometry y="40" width="210" height="60" as="geometry" />
        </mxCell>
        <mxCell id="Movv5W4oJ3RASIbwRSbD-59" value="&#xa;&#xa;" style="group" vertex="1" connectable="0" parent="1">
          <mxGeometry x="390" y="240" width="210" height="100" as="geometry" />
        </mxCell>
        <mxCell id="Movv5W4oJ3RASIbwRSbD-60" value="&lt;div&gt;&lt;b&gt;&amp;lt;&amp;lt;thread&amp;gt;&amp;gt;&lt;/b&gt;&lt;/div&gt;&lt;b&gt;PatientMonitor&lt;/b&gt;" style="rounded=0;whiteSpace=wrap;html=1;" vertex="1" parent="Movv5W4oJ3RASIbwRSbD-59">
          <mxGeometry width="210" height="40" as="geometry" />
        </mxCell>
        <mxCell id="Movv5W4oJ3RASIbwRSbD-61" value="&lt;div&gt;+ Run() : void&lt;/div&gt;" style="rounded=0;whiteSpace=wrap;html=1;align=left;" vertex="1" parent="Movv5W4oJ3RASIbwRSbD-59">
          <mxGeometry y="40" width="210" height="60" as="geometry" />
        </mxCell>
      </root>
    </mxGraphModel>
  </diagram>
</mxfile>
